<?xml version="1.0" encoding="utf-8"?>
<!-- Generated by IcoMoon.io -->
<!DOCTYPE svg PUBLIC "-//W3C//DTD SVG 1.1//EN" "http://www.w3.org/Graphics/SVG/1.1/DTD/svg11.dtd">
<svg version="1.1" xmlns="http://www.w3.org/2000/svg" xmlns:xlink="http://www.w3.org/1999/xlink" width="32" height="32" viewBox="0 0 32 32">
<g id="icomoon-ignore">
	<line stroke-width="1" x1="" y1="" x2="" y2="" stroke="#449FDB" opacity=""></line>
</g>
	<path d="M32 25v2.286q0 0.464-0.339 0.804t-0.804 0.339h-29.714q-0.464 0-0.804-0.339t-0.339-0.804v-2.286q0-0.464 0.339-0.804t0.804-0.339h29.714q0.464 0 0.804 0.339t0.339 0.804zM32 18.143v2.286q0 0.464-0.339 0.804t-0.804 0.339h-29.714q-0.464 0-0.804-0.339t-0.339-0.804v-2.286q0-0.464 0.339-0.804t0.804-0.339h29.714q0.464 0 0.804 0.339t0.339 0.804zM32 11.286v2.286q0 0.464-0.339 0.804t-0.804 0.339h-29.714q-0.464 0-0.804-0.339t-0.339-0.804v-2.286q0-0.464 0.339-0.804t0.804-0.339h29.714q0.464 0 0.804 0.339t0.339 0.804zM32 4.429v2.286q0 0.464-0.339 0.804t-0.804 0.339h-29.714q-0.464 0-0.804-0.339t-0.339-0.804v-2.286q0-0.464 0.339-0.804t0.804-0.339h29.714q0.464 0 0.804 0.339t0.339 0.804z" fill="#000000"></path>
</svg>
