<?xml version="1.0" encoding="utf-8"?>
<!-- Generated by IcoMoon.io -->
<!DOCTYPE svg PUBLIC "-//W3C//DTD SVG 1.1//EN" "http://www.w3.org/Graphics/SVG/1.1/DTD/svg11.dtd">
<svg version="1.1" xmlns="http://www.w3.org/2000/svg" xmlns:xlink="http://www.w3.org/1999/xlink" width="32" height="32" viewBox="0 0 32 32">
<path d="M29.781 23.688c-2.313-2.403-2.817-5.958-3.305-9.396-0.723-5.096-1.537-10.823-8.801-11.572v-0.923c0-0.926-0.751-1.677-1.677-1.677s-1.677 0.751-1.677 1.677v0.924c-7.204 0.755-8.012 6.48-8.728 11.573-0.484 3.439-0.984 6.995-3.278 9.399-0.463 0.485-0.593 1.2-0.329 1.817s0.871 1.017 1.542 1.017h7.024c0.038 2.972 2.464 5.379 5.446 5.379s5.408-2.407 5.446-5.379h7.129c0.672 0 1.28-0.402 1.543-1.021 0.263-0.618 0.131-1.334-0.335-1.818zM15.998 28.553c-1.132 0-2.051-0.903-2.089-2.026h4.178c-0.038 1.123-0.957 2.026-2.089 2.026zM15.998 23.174h-9.258c1.365-2.661 1.788-5.67 2.174-8.413 0.833-5.924 1.482-8.772 7.084-8.772 5.663 0 6.318 2.848 7.158 8.774 0.389 2.742 0.815 5.75 2.19 8.411h-9.348z"></path>
</svg>
