<?xml version="1.0" encoding="utf-8"?>
<!-- Generated by IcoMoon.io -->
<!DOCTYPE svg PUBLIC "-//W3C//DTD SVG 1.1//EN" "http://www.w3.org/Graphics/SVG/1.1/DTD/svg11.dtd">
<svg version="1.1" xmlns="http://www.w3.org/2000/svg" xmlns:xlink="http://www.w3.org/1999/xlink" width="32" height="32" viewBox="0 0 32 32">
<path d="M16.067 0c-8.837 0-16 7.163-16 16s7.163 16 16 16c8.837 0 16-7.163 16-16s-7.163-16-16-16zM25.212 25.236c-0.526-0.222-1.096-0.445-1.707-0.668h0.001c-3.484-1.269-4.598-2.341-4.598-4.634 0-1.376 1.064-0.927 1.531-3.448 0.193-1.046 1.133-0.017 1.314-2.404 0-0.951-0.513-1.189-0.513-1.189s0.261-1.409 0.363-2.492c0.125-1.351-0.78-4.839-5.616-4.839s-5.742 3.488-5.615 4.839c0.102 1.083 0.363 2.492 0.363 2.492s-0.514 0.236-0.514 1.189c0.179 2.387 1.119 1.359 1.313 2.404 0.468 2.521 1.532 2.072 1.532 3.448 0 2.294-1.114 3.365-4.598 4.634-0.569 0.207-1.102 0.414-1.597 0.62-2.35-2.352-3.803-5.6-3.803-9.188 0-7.18 5.82-13 13-13s13 5.82 13 13c-0.001 3.613-1.477 6.88-3.856 9.236z"></path>
</svg>
