<?xml version="1.0" encoding="utf-8"?>
<!-- Generated by IcoMoon.io -->
<!DOCTYPE svg PUBLIC "-//W3C//DTD SVG 1.1//EN" "http://www.w3.org/Graphics/SVG/1.1/DTD/svg11.dtd">
<svg version="1.1" xmlns="http://www.w3.org/2000/svg" xmlns:xlink="http://www.w3.org/1999/xlink" width="32" height="32" viewBox="0 0 32 32">
<path d="M9.28 19.52v-9.92h-6.080c-1.76 0-3.2 1.44-3.2 3.2v9.6c0 1.76 1.44 3.2 3.2 3.2h1.6v4.8l4.8-4.8h8c1.76 0 3.2-1.44 3.2-3.2v-2.912c-0.102 0.022-0.211 0.034-0.32 0.034h-11.2zM28.8 1.6h-14.4c-1.76 0-3.2 1.44-3.2 3.2v12.8h11.2l4.8 4.8v-4.8h1.6c1.76 0 3.2-1.44 3.2-3.2v-9.6c0-1.76-1.44-3.2-3.2-3.2z"></path>
</svg>
