<?xml version="1.0" encoding="utf-8"?>
<!-- Generated by IcoMoon.io -->
<!DOCTYPE svg PUBLIC "-//W3C//DTD SVG 1.1//EN" "http://www.w3.org/Graphics/SVG/1.1/DTD/svg11.dtd">
<svg version="1.1" xmlns="http://www.w3.org/2000/svg" xmlns:xlink="http://www.w3.org/1999/xlink" width="32" height="32" viewBox="0 0 32 32">
<path d="M16 0c-8.825 0-15.988 7.156-15.988 15.988s7.162 15.981 15.988 15.981 15.988-7.156 15.988-15.981-7.162-15.988-15.988-15.988zM24.2 9.894l-8.831 14.181c-0.306 0.494-0.838 0.806-1.419 0.831-0.025 0-0.056 0-0.081 0-0.55 0-1.069-0.256-1.406-0.7l-4.519-5.969c-0.588-0.775-0.438-1.881 0.344-2.469 0.775-0.588 1.881-0.438 2.469 0.344l2.975 3.925 7.481-12.006c0.512-0.825 1.6-1.081 2.431-0.563 0.819 0.513 1.075 1.6 0.556 2.425z"></path>
</svg>
