<?xml version="1.0" encoding="utf-8"?>
<!-- Generated by IcoMoon.io -->
<!DOCTYPE svg PUBLIC "-//W3C//DTD SVG 1.1//EN" "http://www.w3.org/Graphics/SVG/1.1/DTD/svg11.dtd">
<svg version="1.1" xmlns="http://www.w3.org/2000/svg" xmlns:xlink="http://www.w3.org/1999/xlink" width="32" height="32" viewBox="0 0 32 32">
<path d="M26.856 16c0-1.677 1.032-3 2.584-3.909-0.282-0.934-0.65-1.832-1.106-2.675-1.744 0.456-3.154-0.227-4.338-1.411-1.187-1.186-1.55-2.597-1.094-4.338-0.843-0.456-1.738-0.829-2.675-1.107-0.909 1.554-2.552 2.586-4.227 2.586s-3.317-1.032-4.227-2.586c-0.938 0.278-1.832 0.651-2.675 1.106 0.454 1.742 0.093 3.154-1.093 4.339-1.186 1.184-2.597 1.867-4.338 1.413-0.456 0.842-0.827 1.739-1.107 2.674 1.554 0.909 2.586 2.232 2.586 3.909 0 1.675-1.032 3.318-2.586 4.229 0.28 0.936 0.651 1.832 1.107 2.675 1.742-0.456 3.152-0.093 4.338 1.093s1.547 2.595 1.093 4.338c0.843 0.456 1.739 0.829 2.675 1.107 0.91-1.555 2.552-2.586 4.227-2.586s3.32 1.032 4.229 2.586c0.938-0.28 1.832-0.651 2.675-1.107-0.456-1.742-0.094-3.152 1.094-4.338 1.184-1.184 2.594-1.867 4.338-1.413 0.456-0.843 0.826-1.739 1.106-2.675-1.553-0.91-2.585-2.234-2.585-3.909zM16 21.845c-3.227 0-5.843-2.618-5.843-5.845s2.616-5.845 5.843-5.845c3.229 0 5.845 2.618 5.845 5.845s-2.616 5.845-5.845 5.845z"></path>
</svg>
