<?xml version="1.0" encoding="utf-8"?>
<!-- Generated by IcoMoon.io -->
<!DOCTYPE svg PUBLIC "-//W3C//DTD SVG 1.1//EN" "http://www.w3.org/Graphics/SVG/1.1/DTD/svg11.dtd">
<svg version="1.1" xmlns="http://www.w3.org/2000/svg" xmlns:xlink="http://www.w3.org/1999/xlink" width="32" height="32" viewBox="0 0 32 32">
<path d="M24.297 22.013l-5.261-6.013 5.261-6.013c0.895-0.895 0.895-2.345 0-3.237s-2.345-0.893-3.237 0l-5.059 5.782-5.057-5.78c-0.895-0.895-2.345-0.895-3.237 0s-0.893 2.345 0 3.237l5.26 6.011-5.261 6.013c-0.893 0.895-0.893 2.341 0 3.234 0.895 0.895 2.345 0.895 3.237 0l5.059-5.778 5.057 5.779c0.895 0.895 2.345 0.895 3.237 0s0.895-2.339 0.002-3.234z"></path>
</svg>
