<?xml version="1.0" encoding="utf-8"?>
<!-- Generated by IcoMoon.io -->
<!DOCTYPE svg PUBLIC "-//W3C//DTD SVG 1.1//EN" "http://www.w3.org/Graphics/SVG/1.1/DTD/svg11.dtd">
<svg version="1.1" xmlns="http://www.w3.org/2000/svg" xmlns:xlink="http://www.w3.org/1999/xlink" width="32" height="32" viewBox="0 0 32 32">
<path d="M17.605 23.762c-0.905 0.887-2.377 0.887-3.283 0l-1.959-1.922-10.364 10.159h27.931l-10.363-10.159-1.962 1.922z"></path>
<path d="M31.975 9.697l-0.033 0.032 0.018-0.034-13.939-8.855c-0.563-0.54-1.295-0.815-2.036-0.84v-0.001c-0.002 0-0.003 0-0.005 0s-0.003-0-0.005-0v0.001c-0.741 0.025-1.473 0.3-2.036 0.84l-13.939 8.855 0.028 0.054-0.028-0.027v19.798c0 0.561 0.169 1.053 0.409 1.477l10.648-10.438-9.348-9.162 13.351-8.506c0.255-0.243 0.583-0.361 0.919-0.385 0.336 0.024 0.664 0.143 0.919 0.385l13.343 8.501-9.371 9.167 10.695 10.484c0.258-0.431 0.434-0.941 0.434-1.523l-0.025-19.823z"></path>
<path d="M21.378 11.953c0-1.657-0.46-2.955-1.378-3.895s-2.204-1.41-3.854-1.41c-1.727 0-3.080 0.534-4.057 1.603s-1.467 2.582-1.467 4.538c0 1.901 0.529 3.37 1.587 4.407s2.527 1.556 4.407 1.556c0.912 0 1.685-0.068 2.318-0.204s1.228-0.343 1.786-0.622v-2.464c-0.683 0.32-1.337 0.553-1.963 0.7s-1.292 0.219-1.995 0.219c-0.905 0-1.608-0.254-2.11-0.762s-0.769-1.215-0.804-2.12h7.53v-1.546zM13.922 11.378c0.055-0.786 0.275-1.394 0.658-1.822s0.912-0.642 1.587-0.642c0.675 0 1.211 0.214 1.608 0.642s0.602 1.036 0.616 1.822h-4.47z"></path>
</svg>
