<?xml version="1.0" encoding="utf-8"?>
<!-- Generated by IcoMoon.io -->
<!DOCTYPE svg PUBLIC "-//W3C//DTD SVG 1.1//EN" "http://www.w3.org/Graphics/SVG/1.1/DTD/svg11.dtd">
<svg version="1.1" xmlns="http://www.w3.org/2000/svg" xmlns:xlink="http://www.w3.org/1999/xlink" width="32" height="32" viewBox="0 0 32 32">
<path d="M4.8 12.48c-1.944 0-3.52 1.576-3.52 3.52s1.576 3.52 3.52 3.52 3.52-1.576 3.52-3.52c0-1.944-1.576-3.52-3.52-3.52zM16 12.48c-1.944 0-3.52 1.576-3.52 3.52s1.576 3.52 3.52 3.52 3.518-1.576 3.518-3.52c0-1.944-1.574-3.52-3.518-3.52zM27.2 12.48c-1.944 0-3.52 1.576-3.52 3.52s1.576 3.52 3.52 3.52 3.52-1.576 3.52-3.52c0-1.944-1.576-3.52-3.52-3.52z"></path>
</svg>
