<?xml version="1.0" encoding="utf-8"?>
<!-- Generated by IcoMoon.io -->
<!DOCTYPE svg PUBLIC "-//W3C//DTD SVG 1.1//EN" "http://www.w3.org/Graphics/SVG/1.1/DTD/svg11.dtd">
<svg version="1.1" xmlns="http://www.w3.org/2000/svg" xmlns:xlink="http://www.w3.org/1999/xlink" width="32" height="32" viewBox="0 0 32 32">
<path d="M32 2.784l-2.66-2.788-4.682 4.911-4.685-4.911-2.66 2.79 4.685 4.908-4.685 4.912 2.657 2.785 4.688-4.909 4.683 4.909 2.658-2.785-4.685-4.912z"></path>
<path d="M18.235 17.048l-2.657-2.785c-0.884-0.927-0.884-2.385 0-3.313l1.9-1.993h-15.769c-0.684 0.13-1.131 0.469-1.397 0.99l12.577 12.331c0.816 0.802 2.139 0.802 2.954 0l4.635-4.542c-0.166 0.035-0.334 0.055-0.506 0.055-0.656 0-1.283-0.269-1.736-0.744z"></path>
<path d="M0 11.947v17.822c0 0.502 0.152 0.947 0.369 1.328l9.582-9.393-9.951-9.757z"></path>
<path d="M15.843 24.585c-0.814 0.799-2.138 0.799-2.954 0l-1.763-1.731-9.328 9.146h25.136l-9.326-9.146-1.766 1.731z"></path>
<path d="M25.67 15.020l-6.818 6.684 9.586 9.393c0.216-0.381 0.366-0.826 0.366-1.328v-12.043c-0.453-0.105-0.872-0.335-1.197-0.677l-1.936-2.029z"></path>
</svg>
