<?xml version="1.0" encoding="utf-8"?>
<!-- Generated by IcoMoon.io -->
<!DOCTYPE svg PUBLIC "-//W3C//DTD SVG 1.1//EN" "http://www.w3.org/Graphics/SVG/1.1/DTD/svg11.dtd">
<svg version="1.1" xmlns="http://www.w3.org/2000/svg" xmlns:xlink="http://www.w3.org/1999/xlink" width="32" height="32" viewBox="0 0 32 32">
<path d="M26.2 8.8h-12.5c-2.2 0-4 1.8-4 4v7.5c0 2.2 1.8 4 4 4h12.5c2.2 0 4-1.8 4-4v-7.5c0-2.2-1.8-4-4-4z"></path>
<path d="M31.2 2.9h-23.4v-2.1c0-0.4-0.4-0.8-0.8-0.8h-2.3c-0.4 0-0.8 0.4-0.8 0.8v2.1h-3.1c-0.4 0-0.8 0.4-0.8 0.8v2.3c0 0.4 0.4 0.8 0.8 0.8h3.1v24.4c0 0.4 0.4 0.8 0.8 0.8h2.3c0.4 0 0.8-0.4 0.8-0.8v-24.4h23.4c0.4 0 0.8-0.4 0.8-0.8v-2.3c0-0.4-0.4-0.8-0.8-0.8z"></path>
</svg>
