<?xml version="1.0" encoding="utf-8"?>
<!-- Generated by IcoMoon.io -->
<!DOCTYPE svg PUBLIC "-//W3C//DTD SVG 1.1//EN" "http://www.w3.org/Graphics/SVG/1.1/DTD/svg11.dtd">
<svg version="1.1" xmlns="http://www.w3.org/2000/svg" xmlns:xlink="http://www.w3.org/1999/xlink" width="36" height="32" viewBox="0 0 36 32">
<path d="M30.27 18.081v10.403q0 0.564-0.412 0.975t-0.975 0.412h-8.322v-8.322h-5.548v8.322h-8.322q-0.564 0-0.975-0.412t-0.412-0.975v-10.403q0-0.022 0.011-0.065t0.011-0.065l12.461-10.273 12.461 10.273q0.022 0.043 0.022 0.13zM35.102 16.585l-1.344 1.604q-0.173 0.195-0.455 0.238h-0.065q-0.282 0-0.455-0.152l-14.997-12.505-14.997 12.505q-0.26 0.173-0.52 0.152-0.282-0.043-0.455-0.238l-1.344-1.604q-0.173-0.217-0.152-0.509t0.238-0.466l15.582-12.982q0.694-0.564 1.647-0.564t1.647 0.564l5.288 4.421v-4.226q0-0.303 0.195-0.498t0.498-0.195h4.161q0.303 0 0.498 0.195t0.195 0.498v8.842l4.746 3.944q0.217 0.173 0.238 0.466t-0.152 0.509z"></path>
</svg>
