<?xml version="1.0" encoding="utf-8"?>
<!-- Generated by IcoMoon.io -->
<!DOCTYPE svg PUBLIC "-//W3C//DTD SVG 1.1//EN" "http://www.w3.org/Graphics/SVG/1.1/DTD/svg11.dtd">
<svg version="1.1" xmlns="http://www.w3.org/2000/svg" xmlns:xlink="http://www.w3.org/1999/xlink" width="32" height="32" viewBox="0 0 32 32">
<path d="M21.837 11.781c-0.211-0.568 5.664-5.816 2.237-10.067-0.803-0.994-3.522 4.762-7.384 7.366-2.13 1.437-7.090 4.496-7.090 6.187v10.946c0 2.034 7.862 4.187 13.838 4.187 2.19 0 5.362-13.72 5.362-15.901 0-2.187-6.752-2.149-6.963-2.718zM8 11.933c-1.051 0-4.8 0.64-4.8 4.995v7.757c0 4.355 3.749 4.834 4.8 4.834s-1.6-0.915-1.6-3.614v-10.197c0-2.829 2.651-3.774 1.6-3.774z"></path>
</svg>
