<?xml version="1.0" encoding="utf-8"?>
<!-- Generated by IcoMoon.io -->
<!DOCTYPE svg PUBLIC "-//W3C//DTD SVG 1.1//EN" "http://www.w3.org/Graphics/SVG/1.1/DTD/svg11.dtd">
<svg version="1.1" xmlns="http://www.w3.org/2000/svg" xmlns:xlink="http://www.w3.org/1999/xlink" width="32" height="32" viewBox="0 0 32 32">
<path d="M22.203 0h-12.406c-1.797 0-3.266 1.469-3.266 3.266v25.469c0 1.795 1.469 3.266 3.266 3.266h12.406c1.797 0 3.266-1.47 3.266-3.266v-25.469c0-1.797-1.469-3.266-3.266-3.266zM16 30.694c-1.261 0-2.285-0.731-2.285-1.634s1.024-1.634 2.285-1.634c1.262 0 2.285 0.731 2.285 1.634s-1.022 1.634-2.285 1.634zM22.856 25.795h-13.714v-21.55h13.714v21.55z"></path>
</svg>
