<?xml version="1.0" encoding="utf-8"?>
<!-- Generated by IcoMoon.io -->
<!DOCTYPE svg PUBLIC "-//W3C//DTD SVG 1.1//EN" "http://www.w3.org/Graphics/SVG/1.1/DTD/svg11.dtd">
<svg version="1.1" xmlns="http://www.w3.org/2000/svg" xmlns:xlink="http://www.w3.org/1999/xlink" width="32" height="32" viewBox="0 0 32 32">
<path d="M18.561 2.722l-14.786 17.318c-0.492 0.576-0.707 1.34-0.588 2.088l0.815 5.125c0.102 0.644 0.657 1.119 1.31 1.119h5.188c0.758 0 1.478-0.332 1.971-0.908l15.962-18.696c0.459-0.538 0.395-1.347-0.143-1.806l-3.319-2.834c-0.538-0.459-1.347-0.395-1.806 0.142l-11.807 13.83c-0.257 0.3-0.15 0.586-0.058 1.206 0.050 0.338 0.342 0.587 0.683 0.583 0.635-0.006 0.927 0.052 1.182-0.247l8.116-9.503 2.327 1.987-8.399 9.835c-0.451 0.529-1.109 0.836-1.803 0.845h-3.149c-0.802 0.010-1.487-0.538-1.603-1.331l-0.457-3.116c-0.101-0.688 0.1-1.385 0.552-1.914l12.347-14.46c1.415-1.657 3.906-1.854 5.563-0.439l3.919 3.346c1.658 1.415 1.854 3.906 0.439 5.564l-16.609 19.45c-0.809 0.949-1.994 1.494-3.241 1.493h-6.921c-1.525-0.001-2.824-1.114-3.064-2.621l-1.090-6.835c-0.196-1.231 0.157-2.487 0.967-3.435l15.175-17.773 2.327 1.987z"></path>
</svg>
