<?xml version="1.0" encoding="utf-8"?>
<!-- Generated by IcoMoon.io -->
<!DOCTYPE svg PUBLIC "-//W3C//DTD SVG 1.1//EN" "http://www.w3.org/Graphics/SVG/1.1/DTD/svg11.dtd">
<svg version="1.1" xmlns="http://www.w3.org/2000/svg" xmlns:xlink="http://www.w3.org/1999/xlink" width="32" height="32" viewBox="0 0 32 32">
<path d="M0.364 13.083c5.384 15.569 18.167 18.716 20.126 18.862 4.695 0.507 7.719-2.508 8.309-7.065 0 0-4.753-3.098-7.119-3.607l-3.753 3.84c0 0-2.014 0.091-6.427-4.428-4.414-4.523-4.33-6.587-4.33-6.587l3.227-3.301c-0.541-3.352-2.43-8.638-6.133-7.416-3.639 1.172-4.986 6.438-3.902 9.702z"></path>
<path d="M20.681 11.295c-0.9-0.894-2.075-1.339-3.25-1.334l0.016 4.591 4.592-0.014c-0.005-1.177-0.456-2.349-1.358-3.243z"></path>
<path d="M27.703 4.229c-2.85-2.832-6.58-4.24-10.303-4.229l0.009 2.896c2.983-0.009 5.97 1.119 8.253 3.388 2.281 2.269 3.431 5.248 3.441 8.23l2.897-0.009c-0.012-3.725-1.447-7.445-4.297-10.277z"></path>
<path d="M17.416 5.016l0.009 2.824c1.719-0.005 3.438 0.645 4.753 1.952 1.313 1.305 1.972 3.021 1.978 4.739l2.827-0.009c-0.008-2.441-0.947-4.878-2.814-6.735-1.869-1.858-4.312-2.78-6.753-2.771z"></path>
</svg>
