<?xml version="1.0" encoding="utf-8"?>
<!-- Generator: Adobe Illustrator 18.1.1, SVG Export Plug-In . SVG Version: 6.00 Build 0)  -->
<svg version="1.1" id="Layer_1" xmlns="http://www.w3.org/2000/svg" xmlns:xlink="http://www.w3.org/1999/xlink" x="0px" y="0px"
	 viewBox="-241 333 128 128" enable-background="new -241 333 128 128" xml:space="preserve">
<g>
	<title>Aperture</title>
</g>
<g>
	<path fill="#80B23C" d="M-192,419l-35.4-61.4c-8.5,10.9-13.6,24.5-13.6,39.4c0,7.7,1.4,15.1,3.9,22H-192z"/>
	<path fill="#2A91A8" d="M-165.5,421h-70.9c8.2,20.2,26.3,35.2,48.3,39L-165.5,421z"/>
	<path fill="#4A46AA" d="M-150.4,399l-35.4,61.4c2.9,0.4,5.9,0.6,8.9,0.6c19.7,0,37.4-8.9,49.1-23L-150.4,399z"/>
	<path fill="#DA3A35" d="M-162,375l35.4,61.4c8.5-10.9,13.6-24.5,13.6-39.4c0-7.7-1.4-15.1-3.9-22H-162z"/>
	<path fill="#F16522" d="M-188.5,373h70.9c-8.2-20.2-26.3-35.2-48.3-39C-166,334-188.5,373-188.5,373z"/>
	<path fill="#FCB400" d="M-203.6,395l35.4-61.4c-2.9-0.4-5.9-0.6-8.9-0.6c-19.7,0-37.4,8.9-49.1,23L-203.6,395L-203.6,395z"/>
</g>
<g transform="scale(4)" display="none">
	<path display="inline" d="M-48.3,104.2l-8.6-14.8c-2.1,2.7-3.4,6.1-3.4,9.8c0,1.7,0.3,3.4,0.8,5H-48.3L-48.3,104.2z"/>
	<path display="inline" d="M-41.9,105.2h-17.1c2,4.9,6.3,8.6,11.6,9.7L-41.9,105.2L-41.9,105.2z"/>
	<path display="inline" d="M-37.9,100.2l-8.6,14.8c0.7,0.1,1.5,0.2,2.2,0.2c4.7,0,9-2.1,11.9-5.4L-37.9,100.2L-37.9,100.2z"/>
	<path display="inline" d="M-40.2,94.2l8.6,14.8c2.1-2.7,3.4-6.1,3.4-9.8c0-1.7-0.3-3.4-0.8-5H-40.2L-40.2,94.2z"/>
	<path display="inline" d="M-46.6,93.2h17.1c-2-4.9-6.3-8.6-11.6-9.7L-46.6,93.2z"/>
	<path display="inline" d="M-50.6,98.2l8.6-14.8c-0.7-0.1-1.5-0.2-2.2-0.2c-4.7,0-9,2.1-11.9,5.4L-50.6,98.2L-50.6,98.2z"/>
</g>
<g transform="scale(8)" display="none">
	<path display="inline" d="M-24.4,51.6l-4-6.9c-1.1,1.4-1.7,3.1-1.7,4.9c0,0.7,0.1,1.4,0.3,2H-24.4L-24.4,51.6z"/>
	<path display="inline" d="M-21.5,52.6h-8c0.9,2.3,2.9,4,5.3,4.7L-21.5,52.6L-21.5,52.6z"/>
	<path display="inline" d="M-19.2,50.6l-4,6.9c0.4,0,0.7,0.1,1.1,0.1c2.2,0,4.2-0.9,5.6-2.3L-19.2,50.6L-19.2,50.6z"/>
	<path display="inline" d="M-15.8,54.5c1.1-1.4,1.7-3.1,1.7-4.9c0-0.7-0.1-1.4-0.3-2h-5.4L-15.8,54.5L-15.8,54.5z"/>
	<path display="inline" d="M-22.7,46.6h8c-0.9-2.3-2.9-4-5.3-4.7C-20,41.9-22.7,46.6-22.7,46.6z"/>
	<path display="inline" d="M-25,48.6l4-6.9c-0.4,0-0.7-0.1-1.1-0.1c-2.2,0-4.2,0.9-5.6,2.3L-25,48.6L-25,48.6z"/>
</g>
</svg>
