<?xml version="1.0" encoding="utf-8"?>
<!-- Generated by IcoMoon.io -->
<!DOCTYPE svg PUBLIC "-//W3C//DTD SVG 1.1//EN" "http://www.w3.org/Graphics/SVG/1.1/DTD/svg11.dtd">
<svg version="1.1" xmlns="http://www.w3.org/2000/svg" xmlns:xlink="http://www.w3.org/1999/xlink" width="32" height="32" viewBox="0 0 32 32">
<path d="M15.971 0c-8.837 0-16 7.163-16 16s7.163 16 16 16 16-7.163 16-16-7.163-16-16-16zM15.971 29c-7.18 0-13-5.82-13-13s5.82-13 13-13 13 5.82 13 13-5.82 13-13 13z"></path>
<path d="M17.853 20.811v3.093c0 0.138-0.051 0.258-0.154 0.361s-0.223 0.154-0.361 0.154h-3.093c-0.138 0-0.258-0.051-0.361-0.154s-0.154-0.223-0.154-0.361v-3.093c0-0.138 0.051-0.258 0.154-0.361s0.223-0.154 0.361-0.154h3.093c0.138 0 0.258 0.051 0.361 0.154 0.102 0.103 0.154 0.223 0.154 0.361zM21.925 13.079c0 0.464-0.067 0.898-0.2 1.302s-0.284 0.733-0.451 0.986-0.404 0.509-0.709 0.767c-0.305 0.258-0.552 0.445-0.741 0.561-0.189 0.115-0.451 0.268-0.786 0.458-0.352 0.198-0.646 0.477-0.883 0.838s-0.354 0.648-0.354 0.863c0 0.146-0.051 0.286-0.154 0.419s-0.223 0.199-0.361 0.2h-3.093c-0.129 0-0.238-0.079-0.328-0.238s-0.135-0.32-0.136-0.483v-0.58c0-0.713 0.279-1.385 0.838-2.017s1.173-1.098 1.843-1.398c0.507-0.232 0.868-0.472 1.082-0.722s0.322-0.576 0.322-0.979c0-0.361-0.2-0.679-0.599-0.953-0.399-0.275-0.861-0.412-1.385-0.412-0.559 0-1.023 0.125-1.392 0.374-0.301 0.215-0.76 0.709-1.379 1.482-0.112 0.138-0.245 0.206-0.4 0.206-0.103 0-0.21-0.034-0.322-0.103l-2.114-1.611c-0.112-0.086-0.178-0.193-0.2-0.322s0.002-0.249 0.071-0.361c1.374-2.285 3.368-3.428 5.979-3.428 0.687 0 1.379 0.133 2.075 0.4s1.323 0.623 1.881 1.069c0.559 0.446 1.014 0.994 1.366 1.643s0.528 1.33 0.528 2.042l0.002-0.003z"></path>
</svg>
