<?xml version="1.0" encoding="utf-8"?>
<!-- Generated by IcoMoon.io -->
<!DOCTYPE svg PUBLIC "-//W3C//DTD SVG 1.1//EN" "http://www.w3.org/Graphics/SVG/1.1/DTD/svg11.dtd">
<svg version="1.1" xmlns="http://www.w3.org/2000/svg" xmlns:xlink="http://www.w3.org/1999/xlink" width="32" height="32" viewBox="0 0 32 32">
<path d="M14.975 12.963c0-0.5-0.113-0.969-0.306-1.394-0.963-1.2-1.525-2.662-1.525-4.25-0-4.044 3.687-7.319 8.231-7.319s8.238 3.275 8.238 7.319c0 4.044-3.688 7.319-8.238 7.319-0.825 0-1.619-0.106-2.369-0.306-1.244 1.306-2.994 2.125-4.938 2.125-0.319 0-0.625-0.025-0.931-0.063v-0.456c1.087-0.55 1.831-1.675 1.837-2.975v0z"></path>
<path d="M19.578 16.306c-0.625 0.512-1.313 0.931-2.050 1.25v8.756h-12.563v-19.75h6.425c0.125-1.412 0.613-2.731 1.363-3.888h-7.188c-1.644 0-2.994 1.344-2.994 2.994v23.337c0 1.644 1.344 2.994 2.994 2.994h11.369c1.644 0 2.994-1.35 2.994-2.994v-12.65c-0.119-0.019-0.231-0.031-0.35-0.050zM11.247 30.806c-1.156 0-2.094-0.669-2.094-1.494s0.938-1.494 2.094-1.494 2.094 0.669 2.094 1.494-0.938 1.494-2.094 1.494z"></path>
</svg>
