<?xml version="1.0" encoding="utf-8"?>
<!-- Generated by IcoMoon.io -->
<!DOCTYPE svg PUBLIC "-//W3C//DTD SVG 1.1//EN" "http://www.w3.org/Graphics/SVG/1.1/DTD/svg11.dtd">
<svg version="1.1" xmlns="http://www.w3.org/2000/svg" xmlns:xlink="http://www.w3.org/1999/xlink" width="32" height="32" viewBox="0 0 32 32">
<path d="M14.063 0.8l-5.806 5.806c-1.063 1.063-1.938 3.169-1.938 4.669v17.988c0 1.506 1.231 2.737 2.737 2.737h13.881c1.506 0 2.738-1.231 2.738-2.738v-17.988c0-1.506-0.869-3.606-1.938-4.669l-5.8-5.806c-1.069-1.069-2.806-1.069-3.875 0v0zM17.931 9.806c-1.069 1.069-2.794 1.069-3.863 0s-1.069-2.794 0-3.862 2.794-1.069 3.863 0c1.069 1.069 1.069 2.8 0 3.862z"></path>
</svg>
