<?xml version="1.0" encoding="utf-8"?>
<!-- Generated by IcoMoon.io -->
<!DOCTYPE svg PUBLIC "-//W3C//DTD SVG 1.1//EN" "http://www.w3.org/Graphics/SVG/1.1/DTD/svg11.dtd">
<svg version="1.1" xmlns="http://www.w3.org/2000/svg" xmlns:xlink="http://www.w3.org/1999/xlink" width="32" height="32" viewBox="0 0 32 32">
<path d="M19.5 16.3c-0.6 0.5-1.3 0.9-2.1 1.2v8.8h-12.6v-19.8h6.6c0.1-1.4 0.6-2.7 1.4-3.9h-7.4c-1.6 0-3 1.3-3 3v23.4c0 1.6 1.3 3 3 3h11.4c1.6 0 3-1.4 3-3v-12.6c0-0.1-0.1-0.1-0.3-0.1zM11.2 30.8c-1.2 0-2.1-0.7-2.1-1.5s0.9-1.5 2.1-1.5 2.1 0.7 2.1 1.5c-0.1 0.8-1 1.5-2.1 1.5z"></path>
<path d="M21.3 2c0.9 0 1.7 0.2 2.5 0.4 0.8 0.3 1.4 0.7 2 1.2 1.1 1 1.7 2.3 1.7 3.7 0 2.9-2.8 5.3-6.2 5.3-0.6 0-1.3-0.1-1.9-0.2l-1.1-0.3-0.8 0.9c-0.2 0.2-0.4 0.4-0.6 0.5 0-0.2 0-0.3 0-0.5 0-0.7-0.1-1.4-0.4-2s-0.8-1.1-1.1-1.8c-0.8-2-0.1-4.1 1.5-5.5 1.1-1.1 2.9-1.7 4.4-1.7zM21.3 0c-4.5 0-8.2 3.3-8.2 7.3 0 0.9 0.2 1.7 0.5 2.5 0.2 0.4 0.4 0.8 0.6 1.1 0.3 0.5 0.6 0.9 0.7 1.5 0.2 1.4-0.6 2.8-1.8 3.5v0.5c0.6 0 1.2 0.1 1.8 0s1.2-0.3 1.8-0.5c0.4-0.2 0.8-0.4 1.2-0.7 0.2-0.1 0.4-0.3 0.5-0.4 0.1 0 0.4-0.5 0.5-0.4 0.8 0.2 1.5 0.3 2.4 0.3 4.6 0 8.2-3.3 8.2-7.3 0-4.1-3.7-7.4-8.2-7.4z"></path>
</svg>
