<?xml version="1.0" encoding="utf-8"?>
<!-- Generated by IcoMoon.io -->
<!DOCTYPE svg PUBLIC "-//W3C//DTD SVG 1.1//EN" "http://www.w3.org/Graphics/SVG/1.1/DTD/svg11.dtd">
<svg version="1.1" xmlns="http://www.w3.org/2000/svg" xmlns:xlink="http://www.w3.org/1999/xlink" width="32" height="32" viewBox="0 0 32 32">
<path d="M19.803 23.117c-3.986-1.437-5.259-2.65-5.259-5.246 0-1.558 1.218-1.050 1.752-3.904 0.222-1.184 1.298-0.019 1.501-2.722 0-1.077-0.586-1.346-0.586-1.346s0.299-1.595 0.414-2.821c0.144-1.53-0.893-5.478-6.426-5.478s-6.57 3.949-6.426 5.478c0.117 1.227 0.416 2.821 0.416 2.821s-0.587 0.267-0.587 1.346c0.206 2.702 1.282 1.538 1.501 2.722 0.536 2.854 1.754 2.346 1.754 3.904 0 2.597-1.275 3.81-5.261 5.246-0.48 0.171-1.624 0.44-2.597 0.861v6.422h25.6c0 0 0-2.366 0-3.368s-1.797-2.474-5.797-3.915zM27.2 14.4v-4.8h-3.2v4.8h-4.8v3.2h4.8v4.8h3.2v-4.8h4.8v-3.2h-4.8z"></path>
</svg>
