<svg xmlns="http://www.w3.org/2000/svg" width="32" height="32" viewBox="0 0 32 32"><path d="M27.998 19.797v-.066l-.005-.133C27.68 9.733 16 0 16 0S4.32 9.733 4.007 19.598c0 .045-.003.09-.004.134v.066C4 19.865 4 19.933 4 20c0 .075 0 .15.002.222v.018C4.13 26.757 9.452 32 16 32s11.87-5.244 11.996-11.76v-.02l.002-.22c0-.068 0-.136-.002-.203zm-4 .35v.014c-.04 2.104-.892 4.074-2.395 5.55C20.1 27.185 18.108 28 16 28c-.39 0-.776-.028-1.155-.082 4.346-2.59 7.257-7.335 7.257-12.76 0-.608-.037-1.207-.108-1.796 1.26 2.31 1.94 4.462 2 6.363v.005l.002.09v.044c.002.046.003.09.003.137l-.003.15z"/></svg>