<svg xmlns="http://www.w3.org/2000/svg" width="32" height="32" viewBox="0 0 32 32"><path d="M16 4.083c-1.015 1-2.316 2.37-3.612 3.985-3.415 4.254-5.276 8.273-5.383 11.625l-.003.105V19.85C7 19.9 7 19.95 7 20v.15l.002.033c.046 2.365 1.003 4.582 2.693 6.242 1.693 1.662 3.932 2.577 6.304 2.577s4.61-.915 6.303-2.577c1.69-1.66 2.647-3.876 2.694-6.24v-.016L25 20l-.002-.152v-.05l-.004-.097v-.008c-.107-3.352-1.968-7.372-5.383-11.625-1.295-1.614-2.596-2.985-3.61-3.985zM16 0s11.68 9.733 11.993 19.597l.004.134v.067c.002.068.003.135.003.203 0 .074 0 .148-.002.22v.02C27.87 26.755 22.548 32 16 32S4.13 26.756 4.005 20.24v-.018l-.002-.22c0-.07 0-.137.002-.204v-.066l.005-.134C4.32 9.734 16 0 16 0zm6.624 19.507v.264c-.037 1.838-.78 3.56-2.095 4.85-1.318 1.293-3.06 2.004-4.904 2.004-1.468 0-2.87-.45-4.044-1.285.263.022.527.034.794.034 2.373 0 4.612-.915 6.304-2.577 1.69-1.66 2.647-3.876 2.694-6.24v-.016l.002-.166v-.172l-.002-.03-.003-.097v-.008c-.018-.586-.09-1.193-.216-1.818.92 1.865 1.42 3.596 1.468 5.134v.008c0 .024 0 .048.002.072v.043z"/></svg>