<svg xmlns="http://www.w3.org/2000/svg" width="32" height="32" viewBox="0 0 32 32"><path d="M16 6C9.02 6 2.972 10.064 0 16c2.972 5.936 9.02 10 16 10s13.027-4.064 16-10c-2.972-5.936-9.02-10-16-10zm7.89 14.697C21.526 22.204 18.8 23 16 23s-5.527-.796-7.89-2.303C6.23 19.497 4.64 17.892 3.44 16c1.198-1.89 2.79-3.498 4.67-4.697.123-.078.247-.154.372-.228C8.172 11.93 8 12.85 8 13.812c0 4.418 3.582 8 8 8s8-3.582 8-8c0-.962-.17-1.883-.482-2.737.124.074.248.15.37.228 1.88 1.2 3.474 2.805 4.67 4.697-1.196 1.89-2.79 3.498-4.67 4.697z"/></svg>