<svg xmlns="http://www.w3.org/2000/svg" width="32" height="32" viewBox="0 0 32 32"><path d="M27.314 4.686C30.336 7.708 32 11.726 32 16s-1.664 8.292-4.686 11.314C24.292 30.336 20.274 32 16 32s-8.292-1.664-11.314-4.686C1.664 24.292 0 20.274 0 16S1.664 7.708 4.686 4.686C7.708 1.664 11.726 0 16 0s8.292 1.664 11.314 4.686zM25.9 25.9c1.97-1.97 3.28-4.425 3.82-7.096-.42.62-.824.85-1.073-.538-.257-2.262-2.335-.817-3.64-1.62-1.376.926-4.467-1.803-3.942 1.275.81 1.39 4.375-1.857 2.598 1.08-1.134 2.05-4.145 6.592-3.753 8.946.05 3.43-3.504.715-4.73-.422-.823-2.28-.28-6.262-2.433-7.378-2.338-.102-4.344-.314-5.25-2.927-.545-1.87.58-4.654 2.584-5.084 2.934-1.843 3.98 2.158 6.732 2.232.854-.894 3.182-1.178 3.375-2.18-1.805-.318 2.29-1.517-.173-2.2-1.358.16-2.234 1.41-1.512 2.468-2.632.614-2.717-3.81-5.247-2.414-.064 2.206-4.132.715-1.407.268.936-.41-1.527-1.594-.196-1.38.654-.035 2.854-.806 2.26-1.324 1.224-.76 2.254 1.822 3.453-.06.866-1.445-.363-1.712-1.448-.98-.612-.684 1.08-2.164 2.573-2.803.497-.213.973-.33 1.336-.296.752.868 2.142 1.02 2.215-.104C20.18 2.47 18.127 2 16 2c-3.05 0-5.95.97-8.352 2.762.645.296 1.012.664.39 1.134-.483 1.44-2.443 3.37-4.163 3.098-.893 1.54-1.482 3.238-1.733 5.017 1.44.478 1.773 1.42 1.464 1.737-.734.64-1.185 1.548-1.418 2.54.47 2.87 1.818 5.516 3.915 7.613 2.644 2.644 6.16 4.1 9.9 4.1s7.254-1.456 9.898-4.1z"/></svg>