<svg xmlns="http://www.w3.org/2000/svg" width="32" height="32" viewBox="0 0 32 32"><path d="M18.56 2.722L3.776 20.04c-.492.576-.707 1.34-.588 2.088l.815 5.125c.102.644.657 1.12 1.31 1.12H10.5c.758 0 1.478-.333 1.97-.91L28.434 8.77c.46-.538.395-1.347-.143-1.806l-3.32-2.834c-.537-.46-1.346-.395-1.805.142L11.358 18.1c-.257.3-.15.586-.058 1.206.05.338.342.587.683.583.635-.007.927.05 1.182-.248l8.116-9.503 2.328 1.986-8.4 9.835c-.45.53-1.108.837-1.802.846h-3.15c-.8.01-1.486-.538-1.602-1.33l-.457-3.117c-.1-.69.1-1.386.552-1.915l12.346-14.46C22.51.328 25.002.13 26.66 1.545l3.918 3.347c1.658 1.415 1.854 3.906.44 5.564l-16.61 19.45c-.81.95-1.994 1.494-3.24 1.493H4.245c-1.525-.002-2.824-1.115-3.064-2.622l-1.09-6.835c-.196-1.23.157-2.487.967-3.435L16.233.735l2.327 1.987z"/></svg>