<svg xmlns="http://www.w3.org/2000/svg" width="32" height="32" viewBox="0 0 32 32"><path d="M15.97 0c-8.836 0-16 7.163-16 16s7.164 16 16 16 16-7.163 16-16-7.162-16-16-16zm0 29c-7.18 0-13-5.82-13-13s5.82-13 13-13 13 5.82 13 13-5.82 13-13 13z"/><path d="M17.853 20.81v3.094c0 .138-.05.258-.154.36s-.224.155-.362.155h-3.093c-.138 0-.258-.052-.36-.155s-.155-.223-.155-.36V20.81c0-.137.05-.257.154-.36s.223-.154.36-.154h3.094c.138 0 .258.05.36.154.103.103.155.223.155.36zm4.072-7.73c0 .463-.067.897-.2 1.3s-.284.734-.45.987-.405.51-.71.767c-.305.258-.552.445-.74.56-.19.116-.452.27-.787.46-.352.197-.646.476-.883.837s-.354.65-.354.864c0 .146-.05.286-.153.42s-.223.198-.36.2h-3.094c-.13 0-.238-.08-.328-.24s-.135-.32-.136-.482v-.58c0-.713.278-1.385.837-2.017s1.173-1.098 1.843-1.398c.507-.232.868-.472 1.082-.722s.322-.576.322-.98c0-.36-.2-.678-.6-.952-.398-.275-.86-.412-1.384-.412-.56 0-1.023.126-1.392.375-.3.215-.76.71-1.38 1.482-.11.138-.244.206-.4.206-.102 0-.21-.034-.32-.103l-2.115-1.61c-.112-.087-.178-.194-.2-.323s.002-.25.07-.36c1.375-2.286 3.37-3.43 5.98-3.43.687 0 1.38.134 2.075.4s1.323.624 1.88 1.07c.56.446 1.015.994 1.367 1.643s.528 1.33.528 2.042l.002-.003z"/></svg>