<svg xmlns="http://www.w3.org/2000/svg" width="32" height="32" viewBox="0 0 32 32"><path d="M14.975 12.963c0-.5-.113-.97-.306-1.394-.964-1.2-1.526-2.663-1.526-4.25 0-4.045 3.687-7.32 8.23-7.32s8.24 3.275 8.24 7.32c0 4.043-3.69 7.318-8.24 7.318-.824 0-1.618-.106-2.368-.306-1.244 1.306-2.994 2.125-4.938 2.125-.32 0-.625-.025-.93-.063v-.456c1.086-.55 1.83-1.675 1.836-2.975z"/><path d="M19.578 16.306c-.625.512-1.313.93-2.05 1.25v8.756H4.965V6.562h6.425c.125-1.412.613-2.73 1.363-3.888H5.565c-1.644 0-2.994 1.344-2.994 2.994v23.337C2.57 30.65 3.916 32 5.566 32h11.37c1.643 0 2.993-1.35 2.993-2.995v-12.65c-.12-.02-.23-.03-.35-.05zm-8.33 14.5c-1.157 0-2.095-.67-2.095-1.494s.938-1.494 2.094-1.494 2.094.67 2.094 1.494-.937 1.494-2.093 1.494z"/></svg>