<svg xmlns="http://www.w3.org/2000/svg" width="32" height="32" viewBox="0 0 32 32"><path d="M31.88 12.557c-.276-.8-.987-1.384-1.843-1.51l-8.326-1.24-3.618-7.513C17.712 1.504 16.896 1 16 1s-1.71.505-2.092 1.294l-3.62 7.514-8.326 1.238c-.855.127-1.566.712-1.842 1.51-.275.802-.067 1.684.537 2.286l6.102 6.092-1.416 8.45c-.144.852.225 1.706.948 2.204.397.273.864.412 1.33.412.385 0 .77-.094 1.12-.28L16 27.81l7.26 3.91c.35.186.734.28 1.117.28.467 0 .934-.14 1.332-.412.722-.498 1.09-1.352.946-2.203l-1.416-8.45 6.104-6.093c.603-.603.81-1.485.537-2.285zm-8.292 6.806c-.512.51-.744 1.23-.627 1.934l1.417 8.45-7.26-3.905c-.348-.188-.732-.28-1.118-.28-.385 0-.77.093-1.118.28l-7.26 3.906 1.416-8.45c.118-.706-.114-1.425-.626-1.935L2.31 13.27l8.326-1.24c.76-.112 1.416-.588 1.743-1.267L16 3.25l3.62 7.514c.328.68.982 1.154 1.742 1.268l8.328 1.24-6.102 6.09z"/></svg>