<svg xmlns="http://www.w3.org/2000/svg" width="32" height="32" viewBox="0 0 32 32"><path d="M31.39 13.883l-5-8c-.73-1.17-2.01-1.88-3.39-1.88H4c-2.21 0-4 1.79-4 4v16c0 2.21 1.79 4 4 4h19c1.38 0 2.66-.71 3.39-1.88l5-8c.813-1.296.813-2.943 0-4.24zm-1.695 3.18l-5 8c-.367.59-1.002.94-1.695.94H4c-1.103 0-2-.898-2-2v-16c0-1.103.897-2 2-2h19c.693 0 1.328.352 1.695.94l5 8c.403.644.403 1.476 0 2.12zM23 13.002c-1.658 0-3 1.343-3 3s1.342 3 3 3c1.656 0 3-1.344 3-3 0-1.657-1.344-3-3-3zm0 5c-1.105 0-2-.895-2-2s.895-2 2-2c1.104 0 2 .897 2 2s-.896 2-2 2z"/></svg>