<svg xmlns="http://www.w3.org/2000/svg" width="32" height="32" viewBox="0 0 32 32"><path d="M29.78 23.688c-2.312-2.403-2.816-5.958-3.304-9.396-.723-5.096-1.537-10.823-8.8-11.572v-.923c0-.926-.752-1.677-1.678-1.677S14.32.87 14.32 1.797v.924c-7.203.756-8.01 6.48-8.727 11.574-.484 3.44-.984 6.995-3.278 9.4-.463.484-.593 1.2-.33 1.816s.872 1.017 1.543 1.017h7.024c.038 2.972 2.464 5.38 5.446 5.38s5.408-2.408 5.446-5.38h7.13c.67 0 1.28-.402 1.542-1.02.263-.62.13-1.335-.335-1.82zM16 28.553c-1.132 0-2.05-.903-2.09-2.026h4.18c-.04 1.123-.958 2.026-2.09 2.026zm0-5.38H6.74c1.365-2.66 1.788-5.67 2.174-8.412.833-5.923 1.482-8.77 7.084-8.77 5.663 0 6.318 2.847 7.158 8.773.39 2.742.815 5.75 2.19 8.41h-9.348z"/></svg>