<svg xmlns="http://www.w3.org/2000/svg" width="32" height="32" viewBox="0 0 32 32"><path d="M16.067 0c-8.837 0-16 7.163-16 16s7.163 16 16 16 16-7.163 16-16-7.163-16-16-16zm9.145 25.236c-.526-.222-1.096-.445-1.707-.668-3.483-1.27-4.597-2.34-4.597-4.634 0-1.376 1.064-.927 1.53-3.448.194-1.046 1.134-.017 1.315-2.404 0-.95-.513-1.19-.513-1.19s.26-1.408.363-2.49c.125-1.352-.78-4.84-5.616-4.84s-5.742 3.488-5.615 4.84c.102 1.082.363 2.49.363 2.49s-.514.237-.514 1.19c.18 2.387 1.12 1.36 1.314 2.404.468 2.52 1.532 2.072 1.532 3.448 0 2.294-1.114 3.365-4.598 4.634-.57.207-1.102.414-1.597.62C4.52 22.836 3.07 19.588 3.07 16c0-7.18 5.82-13 13-13s13 5.82 13 13c0 3.613-1.477 6.88-3.856 9.236z"/></svg>