<svg xmlns="http://www.w3.org/2000/svg" width="32" height="32" viewBox="0 0 32 32"><path d="M25.914 13.143C25.477 8.58 21.678 5 17 5c-3.62 0-6.717 2.148-8.146 5.23-.43-.136-.878-.23-1.353-.23C5.017 10 3 12.016 3 14.5c0 .494.1.96.247 1.404C1.314 17.03 0 19.1 0 21.498c0 3.59 2.91 6.5 6.5 6.5V28l18-.002c4.143 0 7.5-3.357 7.5-7.5 0-3.656-2.62-6.693-6.086-7.355zM24.5 25.998V26h-18C4.02 25.998 2 23.98 2 21.498c0-1.6.844-3.045 2.255-3.867 1.37-.786 1.465-.942.89-2.356C5.048 14.984 5 14.73 5 14.5 5 13.123 6.123 12 7.5 12c0 0 .657-.046 1.354.23 1.147.458 1.272.02 1.814-1.158C11.815 8.6 14.3 7 17 7c3.6 0 6.576 2.723 6.924 6.334.123 1.432.123 1.432 1.615 1.773 2.585.494 4.46 2.762 4.46 5.39 0 3.034-2.467 5.5-5.5 5.5z"/></svg>