<svg xmlns="http://www.w3.org/2000/svg" width="32" height="32" viewBox="0 0 32 32"><path d="M26.856 16c0-1.677 1.032-3 2.584-3.91-.282-.933-.65-1.83-1.106-2.674-1.744.456-3.154-.227-4.338-1.41-1.187-1.187-1.55-2.598-1.094-4.34-.843-.455-1.738-.828-2.675-1.106-.91 1.554-2.552 2.586-4.227 2.586s-3.317-1.032-4.227-2.586c-.938.278-1.832.65-2.675 1.106.454 1.742.093 3.154-1.093 4.34C6.82 9.188 5.408 9.87 3.667 9.417c-.456.842-.827 1.74-1.107 2.674 1.554.91 2.586 2.232 2.586 3.91 0 1.674-1.032 3.317-2.586 4.228.28.936.65 1.832 1.107 2.675 1.742-.456 3.152-.093 4.338 1.093s1.547 2.595 1.093 4.338c.843.456 1.74.83 2.675 1.107.91-1.555 2.552-2.586 4.227-2.586s3.32 1.032 4.23 2.586c.937-.28 1.83-.65 2.674-1.107-.456-1.742-.094-3.152 1.094-4.338 1.184-1.184 2.594-1.867 4.338-1.413.456-.843.826-1.74 1.106-2.675-1.553-.91-2.585-2.234-2.585-3.91zM16 21.845c-3.227 0-5.843-2.618-5.843-5.845s2.616-5.845 5.843-5.845c3.23 0 5.845 2.618 5.845 5.845S19.23 21.845 16 21.845z"/></svg>