<svg xmlns="http://www.w3.org/2000/svg" width="32" height="32" viewBox="0 0 32 32"><path d="M17.605 23.762c-.905.887-2.377.887-3.283 0l-1.96-1.922L2 32h27.93L19.567 21.84l-1.962 1.922z"/><path d="M31.975 9.697l-.033.032.018-.035L18.02.84C17.46.3 16.727.025 15.986 0h-.01c-.74.025-1.473.3-2.036.84L0 9.695l.028.054L0 9.72V29.52c0 .56.17 1.053.41 1.477L11.056 20.56 1.71 11.396 15.06 2.89c.255-.242.583-.36.92-.384.335.024.663.143.918.385l13.343 8.502-9.37 9.167 10.695 10.483c.258-.43.434-.94.434-1.523l-.026-19.823z"/><path d="M21.378 11.953c0-1.657-.46-2.955-1.378-3.895s-2.204-1.41-3.854-1.41c-1.727 0-3.08.534-4.057 1.603s-1.468 2.583-1.468 4.54c0 1.9.53 3.37 1.587 4.406s2.526 1.556 4.406 1.556c.912 0 1.685-.068 2.318-.204s1.228-.343 1.786-.622v-2.464c-.683.32-1.337.553-1.963.7s-1.292.22-1.995.22c-.905 0-1.608-.255-2.11-.763s-.77-1.216-.804-2.12h7.53v-1.547zm-7.456-.575c.055-.786.275-1.394.658-1.822s.912-.642 1.587-.642c.675 0 1.21.214 1.608.642s.602 1.036.616 1.822h-4.47z"/></svg>