<svg xmlns="http://www.w3.org/2000/svg" width="32" height="32" viewBox="0 0 32 32"><path stroke="#449FDB" d="M0 0"/><path d="M14.662 7.344v6.99l-3.56-3.224v3.234l4.897 4.43 4.897-4.43V11.11l-3.563 3.225v-6.99zM17.605 23.762c-.905.887-2.377.887-3.283 0l-1.96-1.922L2 32h27.93L19.567 21.84l-1.962 1.922zM31.975 9.697l-.033.032.018-.035L18.02.84C17.46.3 16.727.025 15.986 0h-.01c-.74.025-1.473.3-2.036.84L0 9.695l.028.054L0 9.72V29.52c0 .56.17 1.053.41 1.477L11.056 20.56 1.71 11.396 15.06 2.89c.25-.238.573-.356.903-.383.33.027.652.145.903.384l13.362 8.514-9.36 9.155 10.696 10.483c.258-.43.434-.94.434-1.523l-.025-19.823z"/></svg>