<svg xmlns="http://www.w3.org/2000/svg" width="32" height="32" viewBox="0 0 32 32"><path stroke="#449FDB" d="M0 0"/><path d="M32 2.784L29.34-.004l-4.682 4.91-4.685-4.91-2.66 2.79 4.685 4.908-4.685 4.912 2.657 2.785 4.688-4.908 4.683 4.91L32 12.605l-4.686-4.912zM18.235 17.048l-2.657-2.785c-.884-.927-.884-2.385 0-3.313l1.9-1.993H1.708c-.683.13-1.13.47-1.396.99l12.577 12.33c.815.803 2.138.803 2.953 0l4.635-4.54c-.166.034-.334.054-.506.054-.656 0-1.283-.268-1.736-.743zM0 11.947V29.77c0 .5.152.946.37 1.327l9.58-9.393L0 11.947zM15.843 24.585c-.814.8-2.138.8-2.954 0l-1.764-1.73L1.798 32h25.136l-9.326-9.146-1.766 1.73zM25.67 15.02l-6.818 6.684 9.586 9.393c.216-.38.366-.826.366-1.328V17.725c-.453-.105-.872-.335-1.197-.677l-1.936-2.03z"/></svg>