<svg xmlns="http://www.w3.org/2000/svg" width="32" height="32" viewBox="0 0 32 32"><path stroke="#449FDB" d="M0 0"/><path d="M16 0C7.163 0 0 2.24 0 5v3l12 12v10c0 1.105 1.79 2 4 2s4-.895 4-2V20L32 8V5c0-2.76-7.163-5-16-5zM2.95 4.338c.748-.427 1.8-.832 3.04-1.17C8.738 2.414 12.293 2 16 2s7.263.414 10.012 1.167c1.24.34 2.292.745 3.04 1.17.494.282.76.52.884.663-.124.142-.39.38-.884.662-.748.427-1.8.832-3.04 1.17C23.264 7.587 19.71 8 16.002 8S8.738 7.586 5.99 6.833c-1.24-.34-2.292-.745-3.04-1.17-.494-.283-.76-.52-.884-.663.124-.142.39-.38.884-.662z"/></svg>