<svg xmlns="http://www.w3.org/2000/svg" width="32" height="32" viewBox="0 0 32 32"><path d="M10.03 32c-2.132-4.438-.996-6.98.643-9.376 1.795-2.624 2.258-5.22 2.258-5.22s1.412 1.833.848 4.702c2.493-2.775 2.963-7.196 2.587-8.89C22 17.157 24.408 25.682 21.163 32 38.425 22.233 25.457 7.62 23.2 5.973c.752 1.646.894 4.433-.626 5.785C20 1.998 13.637-.002 13.637-.002c.753 5.034-2.728 10.537-6.084 14.65-.118-2.008-.243-3.393-1.298-5.313-.237 3.646-3.023 6.617-3.777 10.27-1.022 4.946.765 8.568 7.555 12.394z"/></svg>