<svg xmlns="http://www.w3.org/2000/svg" width="32" height="32" viewBox="0 0 32 32"><path d="M16 0C7.163 0 0 7.163 0 16s7.163 16 16 16 16-7.163 16-16S24.837 0 16 0zm9.502 25.502c-1.235 1.235-2.672 2.204-4.272 2.88-.406.173-.82.324-1.238.454v-2.398c0-1.26-.432-2.188-1.297-2.78.542-.053 1.04-.126 1.492-.22s.932-.23 1.438-.406.958-.388 1.36-.633.785-.564 1.155-.954.68-.833.93-1.328.448-1.09.594-1.78.22-1.457.22-2.29c0-1.615-.527-2.99-1.58-4.125.48-1.25.428-2.61-.155-4.078l-.392-.047c-.27-.03-.758.083-1.46.344s-1.493.688-2.368 1.28c-1.24-.343-2.526-.515-3.86-.515-1.343 0-2.624.172-3.843.516-.552-.375-1.075-.685-1.57-.93s-.89-.41-1.188-.5-.574-.143-.83-.164-.418-.027-.49-.017-.126.02-.157.03c-.583 1.48-.635 2.84-.156 4.08-1.052 1.134-1.578 2.51-1.578 4.124 0 .833.072 1.596.218 2.29s.344 1.285.594 1.78.56.938.93 1.328.755.708 1.156.953.854.456 1.36.633.983.314 1.437.407.95.167 1.492.22c-.854.582-1.28 1.51-1.28 2.78v2.445c-.473-.14-.938-.306-1.395-.5-1.6-.677-3.037-1.646-4.272-2.88s-2.204-2.673-2.88-4.273c-.7-1.656-1.056-3.415-1.056-5.23s.355-3.576 1.055-5.23c.676-1.6 1.645-3.038 2.88-4.273s2.672-2.204 4.272-2.88c1.655-.7 3.415-1.056 5.23-1.056s3.575.356 5.23 1.056c1.6.677 3.037 1.646 4.272 2.88s2.204 2.673 2.88 4.273c.7 1.654 1.056 3.414 1.056 5.23s-.355 3.574-1.055 5.23c-.677 1.6-1.646 3.036-2.88 4.27z"/></svg>