<svg xmlns="http://www.w3.org/2000/svg" width="36" height="32" viewBox="0 0 36 32"><path d="M30.27 18.08v10.404q0 .564-.412.975t-.975.41H20.56v-8.32h-5.547v8.32H6.69q-.563 0-.974-.41t-.412-.976V18.08q0-.02.01-.064t.012-.065L17.786 7.68 30.25 17.95q.022.044.022.13zm4.832-1.495l-1.344 1.604q-.173.194-.455.237h-.065q-.282 0-.455-.152L17.786 5.77 2.79 18.275q-.26.173-.52.152-.283-.043-.456-.238L.47 16.584q-.173-.217-.152-.51t.238-.465L16.138 2.628q.694-.564 1.647-.564t1.647.564l5.288 4.42V2.824q0-.303.195-.498t.498-.195h4.16q.304 0 .5.195t.194.498v8.842l4.746 3.944q.217.172.238.465t-.15.51z"/></svg>