<svg xmlns="http://www.w3.org/2000/svg" width="32" height="32" viewBox="0 0 32 32"><path d="M32 25v2.286q0 .464-.34.804t-.803.34H1.143q-.464 0-.804-.34T0 27.286V25q0-.464.34-.804t.803-.34h29.714q.464 0 .804.34T32 25zm0-6.857v2.286q0 .463-.34.803t-.803.34H1.143q-.464 0-.804-.34T0 20.43v-2.287q0-.464.34-.804t.803-.34h29.714q.464 0 .804.34t.34.803zm0-6.857v2.286q0 .464-.34.804t-.803.34H1.143q-.464 0-.804-.34T0 13.572v-2.286q0-.464.34-.804t.803-.34h29.714q.464 0 .804.34t.34.804zm0-6.857v2.285q0 .464-.34.804t-.803.338H1.143q-.464 0-.804-.34T0 6.716V4.43q0-.465.34-.805t.803-.34h29.714q.464 0 .804.34t.34.804z"/></svg>