<svg xmlns="http://www.w3.org/2000/svg" width="32" height="32" viewBox="0 0 32 32"><path stroke="#449FDB" d="M0 0"/><path d="M.364 13.083C5.748 28.653 18.53 31.8 20.49 31.945c4.695.507 7.72-2.508 8.31-7.065 0 0-4.754-3.098-7.12-3.607l-3.753 3.84s-2.014.09-6.427-4.428c-4.414-4.523-4.33-6.587-4.33-6.587l3.227-3.3c-.54-3.353-2.43-8.64-6.133-7.417C.624 4.554-.722 9.82.362 13.084zM20.68 11.295c-.9-.894-2.074-1.34-3.25-1.334l.017 4.592 4.592-.014c-.006-1.177-.457-2.35-1.36-3.243zM27.703 4.23C24.853 1.396 21.123-.01 17.4 0l.01 2.896c2.982-.01 5.97 1.12 8.252 3.388 2.28 2.27 3.43 5.248 3.44 8.23l2.898-.01c-.012-3.724-1.447-7.444-4.297-10.276zM17.416 5.016l.01 2.824c1.718-.005 3.437.645 4.752 1.952 1.313 1.305 1.972 3.02 1.978 4.74l2.827-.01c-.008-2.44-.947-4.878-2.814-6.735-1.87-1.858-4.313-2.78-6.754-2.77z"/></svg>