<svg xmlns="http://www.w3.org/2000/svg" viewBox="-241 333 128 128"><title>Aperture</title><path fill="#80B23C" d="M-192 419l-35.4-61.4c-8.5 10.9-13.6 24.5-13.6 39.4 0 7.7 1.4 15.1 3.9 22h45.1z"/><path fill="#2A91A8" d="M-165.5 421h-70.9c8.2 20.2 26.3 35.2 48.3 39l22.6-39z"/><path fill="#4A46AA" d="M-150.4 399l-35.4 61.4c2.9.4 5.9.6 8.9.6 19.7 0 37.4-8.9 49.1-23l-22.6-39z"/><path fill="#DA3A35" d="M-162 375l35.4 61.4c8.5-10.9 13.6-24.5 13.6-39.4 0-7.7-1.4-15.1-3.9-22H-162z"/><path fill="#F16522" d="M-188.5 373h70.9c-8.2-20.2-26.3-35.2-48.3-39-.1 0-22.6 39-22.6 39z"/><path fill="#FCB400" d="M-203.6 395l35.4-61.4c-2.9-.4-5.9-.6-8.9-.6-19.7 0-37.4 8.9-49.1 23l22.6 39z"/></svg>