<svg xmlns="http://www.w3.org/2000/svg" width="32" height="32" viewBox="0 0 32 32"><path d="M15.978 0C7.15 0-.007 7.157-.007 15.985S7.15 31.97 15.978 31.97s15.985-7.157 15.985-15.985S24.806 0 15.978 0zm1.883 23.904c0 .138-.05.258-.153.36s-.223.155-.36.155h-3.094c-.138 0-.258-.052-.36-.155s-.155-.223-.155-.36V20.81c0-.137.05-.257.154-.36s.223-.154.36-.154h3.094c.138 0 .258.05.36.154.103.103.155.223.155.36v3.094zm3.873-9.523c-.133.405-.284.734-.45.987s-.405.51-.71.767c-.305.258-.552.445-.74.56-.19.116-.452.27-.787.46-.352.197-.646.476-.883.837s-.354.65-.354.864c0 .146-.052.286-.155.42s-.223.198-.36.2H14.2c-.128 0-.237-.08-.327-.24s-.135-.32-.136-.482v-.58c0-.713.28-1.385.838-2.017s1.173-1.098 1.843-1.398c.507-.232.868-.472 1.082-.722s.322-.576.322-.98c0-.36-.2-.678-.6-.952-.398-.275-.86-.412-1.384-.412-.56 0-1.023.126-1.392.375-.3.215-.76.71-1.38 1.482-.11.138-.244.206-.4.206-.102 0-.21-.034-.32-.103l-2.115-1.61c-.11-.087-.177-.194-.2-.323s.003-.25.072-.36c1.374-2.286 3.368-3.43 5.98-3.43.686 0 1.378.134 2.074.4s1.323.624 1.88 1.07c.56.446 1.015.994 1.367 1.643s.528 1.33.528 2.042l.003-.003c0 .463-.067.897-.2 1.3z"/></svg>