<svg xmlns="http://www.w3.org/2000/svg" width="32" height="32" viewBox="0 0 32 32"><path stroke="#449FDB" d="M0 0"/><path d="M8.826 22.758c-3.62-3.893-3.555-9.992.203-13.778 1.538-1.55 3.46-2.474 5.46-2.778l-.11-3.323c-2.805.34-5.522 1.593-7.674 3.76-5.038 5.074-5.098 13.263-.197 18.45l-2.787 2.805 8.816.482-.025-9.334-3.69 3.715zM19.46 3.624l.023 9.334 3.69-3.717c3.62 3.894 3.558 9.993-.202 13.78-1.538 1.55-3.46 2.473-5.463 2.777l.11 3.322c2.808-.342 5.525-1.595 7.677-3.763 5.037-5.074 5.1-13.264.195-18.45l2.785-2.805-8.816-.478z"/></svg>