<svg xmlns="http://www.w3.org/2000/svg" xmlns:xlink="http://www.w3.org/1999/xlink"><symbol viewBox="0 0 32 32" id="bell"><path d="M29.78 23.688c-2.312-2.403-2.816-5.958-3.304-9.396-.723-5.096-1.537-10.823-8.8-11.572v-.923c0-.926-.752-1.677-1.678-1.677S14.32.87 14.32 1.797v.924c-7.203.757-8.01 6.48-8.727 11.575-.484 3.44-.984 6.995-3.278 9.4-.463.484-.593 1.2-.33 1.816s.872 1.018 1.543 1.018h7.024c.038 2.972 2.464 5.38 5.446 5.38s5.408-2.408 5.446-5.38h7.13c.67 0 1.28-.402 1.542-1.02.263-.62.13-1.335-.335-1.82zM16 28.553c-1.132 0-2.05-.903-2.09-2.026h4.18c-.04 1.123-.958 2.026-2.09 2.026zm0-5.38H6.74c1.365-2.66 1.788-5.67 2.174-8.412.833-5.922 1.482-8.77 7.084-8.77 5.663 0 6.318 2.848 7.158 8.774.39 2.742.815 5.75 2.19 8.41h-9.348z"/></symbol><symbol viewBox="0 0 32 32" id="checkmark"><path d="M13.272 27.2c-.696 0-1.355-.325-1.778-.885l-5.718-7.55c-.744-.98-.55-2.38.432-3.124.984-.744 2.38-.55 3.125.434l3.762 4.966 9.46-15.187c.65-1.045 2.026-1.365 3.073-.714 1.045.65 1.365 2.025.712 3.07L15.167 26.147c-.39.626-1.06 1.018-1.794 1.05-.034.002-.067.002-.1.002z"/></symbol><symbol viewBox="0 0 32 32" id="cloud"><path d="M25.914 13.143C25.477 8.58 21.678 5 17 5c-3.62 0-6.717 2.148-8.146 5.23-.43-.136-.878-.23-1.353-.23C5.018 10 3 12.016 3 14.5c0 .494.1.96.247 1.404C1.314 17.03 0 19.1 0 21.498c0 3.59 2.91 6.5 6.5 6.5V28l18-.002c4.143 0 7.5-3.357 7.5-7.5 0-3.656-2.62-6.693-6.086-7.355zM24.5 25.998V26h-18C4.02 25.998 2 23.98 2 21.498c0-1.6.844-3.045 2.255-3.867 1.37-.785 1.465-.94.89-2.355C5.048 14.985 5 14.73 5 14.5 5 13.123 6.123 12 7.5 12c0 0 .657-.046 1.354.23 1.147.458 1.272.02 1.814-1.158C11.815 8.6 14.3 7 17 7c3.6 0 6.576 2.723 6.924 6.334.123 1.432.123 1.432 1.615 1.773 2.584.494 4.46 2.762 4.46 5.39 0 3.034-2.468 5.5-5.5 5.5z"/></symbol><symbol viewBox="0 0 32 32" id="cog"><path d="M26.856 16c0-1.677 1.032-3 2.584-3.91-.282-.933-.65-1.83-1.106-2.674-1.744.456-3.154-.227-4.338-1.41-1.187-1.187-1.55-2.598-1.094-4.34-.843-.455-1.738-.828-2.675-1.106-.91 1.554-2.552 2.586-4.227 2.586s-3.317-1.032-4.227-2.586c-.938.278-1.832.65-2.675 1.106.454 1.742.093 3.154-1.093 4.34C6.82 9.188 5.408 9.87 3.667 9.416c-.456.843-.827 1.74-1.107 2.675C4.114 13 5.146 14.324 5.146 16c0 1.675-1.032 3.318-2.586 4.23.28.935.65 1.83 1.107 2.674 1.742-.456 3.152-.093 4.338 1.093s1.547 2.595 1.093 4.338c.843.456 1.74.83 2.675 1.107.91-1.555 2.552-2.586 4.227-2.586s3.32 1.032 4.23 2.586c.937-.28 1.83-.65 2.674-1.107-.456-1.742-.094-3.152 1.094-4.338 1.184-1.184 2.594-1.867 4.338-1.413.456-.843.826-1.74 1.106-2.675-1.553-.91-2.585-2.235-2.585-3.91zM16 21.845c-3.227 0-5.843-2.618-5.843-5.845s2.616-5.845 5.843-5.845c3.23 0 5.845 2.618 5.845 5.845S19.23 21.845 16 21.845z"/></symbol><symbol viewBox="0 0 32 32" id="fire"><path d="M10.03 32c-2.132-4.438-.996-6.98.643-9.376 1.795-2.624 2.258-5.22 2.258-5.22s1.413 1.833.85 4.702c2.492-2.775 2.962-7.196 2.586-8.89C22 17.156 24.408 25.682 21.163 32 38.425 22.233 25.457 7.62 23.2 5.973c.752 1.646.894 4.433-.626 5.785C20 1.998 13.637-.002 13.637-.002c.753 5.034-2.728 10.537-6.084 14.65-.118-2.008-.243-3.393-1.298-5.313-.237 3.646-3.023 6.617-3.777 10.27-1.022 4.946.765 8.568 7.555 12.394z"/></symbol><symbol viewBox="0 0 32 32" id="github"><path d="M16 0C7.163 0 0 7.163 0 16s7.163 16 16 16 16-7.163 16-16S24.837 0 16 0zm9.502 25.502c-1.235 1.235-2.672 2.204-4.272 2.88-.406.173-.82.324-1.238.454v-2.398c0-1.26-.432-2.188-1.297-2.78.542-.053 1.04-.126 1.492-.22s.932-.23 1.438-.406.958-.388 1.36-.633.785-.565 1.155-.955.68-.833.93-1.328.448-1.09.594-1.78.22-1.457.22-2.29c0-1.615-.527-2.99-1.58-4.125.48-1.25.428-2.61-.155-4.078l-.393-.047c-.27-.03-.758.083-1.46.344s-1.493.69-2.368 1.28c-1.24-.342-2.527-.514-3.86-.514-1.344 0-2.625.172-3.844.516-.552-.375-1.075-.685-1.57-.93s-.89-.41-1.188-.5-.574-.143-.83-.164-.418-.027-.49-.017-.126.02-.157.03c-.582 1.48-.634 2.84-.155 4.08-1.052 1.135-1.578 2.51-1.578 4.125 0 .833.072 1.596.218 2.29s.344 1.285.594 1.78.56.938.93 1.328.754.708 1.155.953.854.456 1.36.633.983.313 1.437.406.95.167 1.492.22c-.854.582-1.28 1.51-1.28 2.78v2.445c-.473-.14-.938-.305-1.395-.5-1.6-.676-3.038-1.645-4.273-2.88s-2.204-2.672-2.88-4.272c-.7-1.656-1.056-3.415-1.056-5.23s.356-3.576 1.056-5.23c.676-1.6 1.645-3.038 2.88-4.273s2.672-2.204 4.272-2.88c1.655-.7 3.415-1.056 5.23-1.056s3.575.355 5.23 1.055c1.6.677 3.037 1.646 4.272 2.88s2.204 2.673 2.88 4.273c.7 1.654 1.056 3.414 1.056 5.23s-.355 3.574-1.055 5.23c-.676 1.6-1.645 3.036-2.88 4.27z"/></symbol><symbol viewBox="0 0 32 32" id="heart"><path d="M29.51 4.49c-3.32-3.32-8.7-3.32-12.02 0-.61.608-1.105 1.286-1.49 2.007-.386-.72-.883-1.4-1.49-2.007-3.32-3.32-8.702-3.32-12.022 0s-3.32 8.7 0 12.02L15.998 30l13.51-13.49c3.32-3.318 3.32-8.7 0-12.02z"/></symbol><symbol viewBox="0 0 32 32" id="paperclip"><path d="M18.56 2.722L3.776 20.04c-.492.576-.707 1.34-.588 2.088l.815 5.125c.102.644.657 1.12 1.31 1.12H10.5c.758 0 1.478-.333 1.97-.91L28.434 8.77c.46-.538.395-1.347-.143-1.806L24.97 4.13c-.536-.46-1.345-.395-1.804.142L11.358 18.1c-.257.3-.15.586-.058 1.206.05.338.342.587.683.583.635-.008.927.05 1.182-.25l8.116-9.502 2.33 1.986-8.4 9.835c-.45.53-1.11.836-1.803.845h-3.15c-.8.01-1.486-.538-1.602-1.33l-.457-3.117c-.1-.69.1-1.386.552-1.915l12.346-14.46C22.51.328 25.002.13 26.66 1.545l3.918 3.347c1.658 1.415 1.854 3.906.44 5.564l-16.61 19.45c-.81.95-1.994 1.494-3.24 1.493H4.245c-1.525-.003-2.824-1.116-3.064-2.623L.09 21.942c-.195-1.23.158-2.487.968-3.435L16.233.735l2.327 1.987z"/></symbol><symbol viewBox="-241 333 128 128" id="pinwheel"><title>Aperture</title><path fill="#80B23C" d="M-192 419l-35.4-61.4c-8.5 10.9-13.6 24.5-13.6 39.4 0 7.7 1.4 15.1 3.9 22h45.1z"/><path fill="#2A91A8" d="M-165.5 421h-70.9c8.2 20.2 26.3 35.2 48.3 39l22.6-39z"/><path fill="#4A46AA" d="M-150.4 399l-35.4 61.4c2.9.4 5.9.6 8.9.6 19.7 0 37.4-8.9 49.1-23l-22.6-39z"/><path fill="#DA3A35" d="M-162 375l35.4 61.4c8.5-10.9 13.6-24.5 13.6-39.4 0-7.7-1.4-15.1-3.9-22H-162z"/><path fill="#F16522" d="M-188.5 373h70.9c-8.2-20.2-26.3-35.2-48.3-39-.1 0-22.6 39-22.6 39z"/><path fill="#FCB400" d="M-203.6 395l35.4-61.4c-2.9-.4-5.9-.6-8.9-.6-19.7 0-37.4 8.9-49.1 23l22.6 39z"/></symbol><symbol viewBox="0 0 32 32" id="search"><path d="M31.008 27.23l-7.58-6.446c-.784-.705-1.622-1.03-2.3-.998C22.92 17.69 24 14.97 24 12c0-6.63-5.373-12-12-12S0 5.37 0 12c0 6.626 5.374 12 12 12 2.973 0 5.692-1.082 7.788-2.87-.03.676.293 1.514.998 2.298l6.447 7.58c1.105 1.226 2.908 1.33 4.008.23s.998-2.903-.23-4.007zM12 20c-4.418 0-8-3.582-8-8s3.582-8 8-8 8 3.582 8 8-3.582 8-8 8z"/></symbol><symbol viewBox="0 0 32 32" id="star"><path d="M31.88 12.557c-.276-.8-.987-1.384-1.843-1.51l-8.326-1.24-3.617-7.513C17.713 1.504 16.896 1 16 1s-1.71.505-2.092 1.294l-3.62 7.514-8.326 1.238c-.855.127-1.566.712-1.842 1.51-.275.802-.067 1.684.537 2.286l6.102 6.092-1.417 8.45c-.144.852.225 1.706.948 2.204.398.273.865.412 1.33.412.386 0 .77-.094 1.12-.28L16 27.81l7.26 3.91c.35.186.734.28 1.117.28.467 0 .934-.14 1.332-.412.72-.498 1.09-1.352.945-2.203l-1.416-8.45 6.103-6.093c.603-.603.81-1.485.537-2.285zm-8.292 6.806c-.512.51-.744 1.23-.627 1.934l1.418 8.45-7.26-3.905c-.348-.188-.732-.28-1.118-.28-.385 0-.77.093-1.118.28l-7.26 3.906 1.416-8.45c.118-.706-.114-1.425-.626-1.935L2.31 13.27l8.326-1.24c.76-.112 1.416-.588 1.743-1.267L16 3.25l3.62 7.514c.328.68.982 1.154 1.742 1.268l8.328 1.24-6.102 6.09z"/></symbol><symbol viewBox="0 0 32 32" id="tag"><path d="M31.39 13.883l-5-8c-.73-1.17-2.01-1.88-3.39-1.88H4c-2.21 0-4 1.79-4 4v16c0 2.21 1.79 4 4 4h19c1.38 0 2.66-.71 3.39-1.88l5-8c.813-1.296.813-2.943 0-4.24zm-1.695 3.18l-5 8c-.367.59-1.002.94-1.695.94H4c-1.103 0-2-.898-2-2v-16c0-1.103.897-2 2-2h19c.693 0 1.328.352 1.695.94l5 8c.403.644.403 1.476 0 2.12zM23 13.003c-1.658 0-3 1.342-3 3s1.342 3 3 3c1.656 0 3-1.345 3-3 0-1.658-1.344-3-3-3zm0 5c-1.105 0-2-.896-2-2s.895-2 2-2c1.104 0 2 .896 2 2s-.896 2-2 2z"/></symbol><symbol viewBox="0 0 32 32" id="twitter"><path d="M32 6.076c-1.177.522-2.443.875-3.77 1.034 1.354-.813 2.395-2.1 2.886-3.632-1.27.752-2.674 1.3-4.17 1.593C25.75 3.797 24.044 3 22.156 3c-3.626 0-6.565 2.94-6.565 6.565 0 .515.06 1.016.17 1.496-5.455-.274-10.293-2.89-13.53-6.86-.566.97-.89 2.097-.89 3.3 0 2.28 1.16 4.288 2.92 5.466-1.075-.034-2.087-.33-2.973-.82v.082c0 3.18 2.262 5.834 5.265 6.437-.55.15-1.13.23-1.73.23-.422 0-.833-.04-1.234-.118.835 2.608 3.26 4.506 6.133 4.56-2.247 1.76-5.08 2.81-8.154 2.81-.53 0-1.052-.032-1.566-.093 2.904 1.863 6.355 2.95 10.063 2.95 12.076 0 18.68-10.004 18.68-18.68 0-.285-.007-.568-.02-.85C30.006 8.55 31.12 7.394 32 6.077z"/></symbol><symbol viewBox="0 0 32 32" id="user"><path d="M23.712 23.117c-3.944-1.437-5.205-2.65-5.205-5.246 0-1.556 1.205-1.05 1.733-3.902.22-1.184 1.283-.02 1.488-2.722 0-1.077-.58-1.346-.58-1.346s.295-1.596.41-2.822c.14-1.53-.883-5.478-6.358-5.478-5.474 0-6.5 3.95-6.357 5.478.115 1.226.41 2.82.41 2.82s-.58.268-.58 1.347c.202 2.702 1.266 1.538 1.485 2.722.53 2.854 1.734 2.346 1.734 3.904 0 2.6-1.26 3.81-5.205 5.248C2.73 24.558.16 26.028.16 27.03v3.37h30.08v-3.37s-2.572-2.47-6.53-3.913z"/></symbol><symbol viewBox="0 0 32 32" id="warning"><path d="M31.22 28.77L16.965 3.76c-.197-.345-.566-.557-.966-.557s-.77.213-.967.558L.783 28.77c-.194.34-.19.755.008 1.09s.565.543.96.543h28.503c.39 0 .757-.206.957-.542.197-.334.2-.75.01-1.09zm-13.46-1.567h-3.52v-3.2h3.52v3.2zm0-5.6h-3.52v-9.6h3.52v9.6z"/></symbol></svg>