<svg xmlns="http://www.w3.org/2000/svg" width="32" height="32" viewBox="0 0 32 32"><path d="M19.5 16.3c-.6.5-1.3.9-2.1 1.2v8.8H4.8V6.5h6.6c.1-1.4.6-2.7 1.4-3.9H5.4c-1.6 0-3 1.3-3 3V29c0 1.6 1.3 3 3 3h11.4c1.6 0 3-1.4 3-3V16.4c0-.1-.1-.1-.3-.1zm-8.3 14.5c-1.2 0-2.1-.7-2.1-1.5s.9-1.5 2.1-1.5 2.1.7 2.1 1.5c-.1.8-1 1.5-2.1 1.5zM21.3 2c.9 0 1.7.2 2.5.4.8.3 1.4.7 2 1.2 1.1 1 1.7 2.3 1.7 3.7 0 2.9-2.8 5.3-6.2 5.3-.6 0-1.3-.1-1.9-.2l-1.1-.3-.8.9c-.2.2-.4.4-.6.5V13c0-.7-.1-1.4-.4-2s-.8-1.1-1.1-1.8c-.8-2-.1-4.1 1.5-5.5C18 2.6 19.8 2 21.3 2zm0-2c-4.5 0-8.2 3.3-8.2 7.3 0 .9.2 1.7.5 2.5.2.4.4.8.6 1.1.3.5.6.9.7 1.5.2 1.4-.6 2.8-1.8 3.5v.5c.6 0 1.2.1 1.8 0s1.2-.3 1.8-.5c.4-.2.8-.4 1.2-.7.2-.1.4-.3.5-.4.1 0 .4-.5.5-.4.8.2 1.5.3 2.4.3 4.6 0 8.2-3.3 8.2-7.3 0-4.1-3.7-7.4-8.2-7.4z"/></svg>