<svg xmlns="http://www.w3.org/2000/svg" width="32" height="32" viewBox="0 0 32 32"><path d="M22.97 23.568c-.593-.093-.607-1.708-.607-1.708s1.74-1.708 2.12-4.005c1.02 0 1.65-2.442.63-3.3.042-.905 1.31-7.1-5.113-7.1s-5.155 6.195-5.112 7.1c-1.02.858-.39 3.3.63 3.3.38 2.297 2.12 4.005 2.12 4.005s-.014 1.615-.606 1.708C15.124 23.868 8 26.984 8 30.4h24c0-3.416-7.124-6.53-9.03-6.832zm-12.218.545c1.378-.848 3.05-1.635 4.423-2.107-.492-.7-1.04-1.654-1.385-2.783-.48-.393-.873-.954-1.125-1.644-.252-.692-.348-1.465-.27-2.18.057-.51.203-.99.428-1.408-.136-1.456-.232-4.314 1.64-6.398.724-.808 1.64-1.39 2.74-1.74-.196-2.024-1.224-4.4-5.202-4.4-6.423 0-5.154 6.196-5.11 7.1-1.02.86-.39 3.3.63 3.3.378 2.298 2.12 4.006 2.12 4.006s-.015 1.615-.607 1.708c-1.908.3-9.03 3.416-9.03 6.832h10.3c.146-.096.296-.192.45-.287z"/></svg>