<svg xmlns="http://www.w3.org/2000/svg" width="32" height="32" viewBox="0 0 32 32"><path d="M23.712 23.117c-3.944-1.437-5.205-2.65-5.205-5.246 0-1.557 1.205-1.05 1.733-3.903.22-1.184 1.283-.02 1.488-2.722 0-1.077-.58-1.346-.58-1.346s.295-1.596.41-2.822c.14-1.53-.883-5.478-6.358-5.478-5.474 0-6.5 3.95-6.357 5.478.115 1.226.41 2.82.41 2.82s-.58.268-.58 1.347c.202 2.702 1.266 1.538 1.485 2.722.53 2.854 1.734 2.346 1.734 3.904 0 2.598-1.26 3.81-5.205 5.247C2.73 24.557.16 26.027.16 27.03v3.37h30.08v-3.37s-2.572-2.47-6.53-3.913z"/></svg>